<svg width="511" height="514" viewBox="0 0 511 514" fill="none" xmlns="http://www.w3.org/2000/svg">
<path style="mix-blend-mode:screen" opacity="0.15" d="M0.695888 47.6991C0.771474 57.0211 3.60483 66.1121 8.83885 73.8264C14.0729 81.5407 21.4733 87.533 30.1075 91.0481C38.7417 94.5632 48.2232 95.4439 57.3571 93.579C66.4909 91.7141 74.8684 87.1872 81.4336 80.5687C87.9988 73.9503 92.4579 65.5366 94.249 56.388C96.04 47.2394 95.0829 37.7653 91.4982 29.1597C87.9134 20.5542 81.8615 13.2024 74.1052 8.03084C66.3489 2.85928 57.2353 0.0994276 47.913 0.0991211C41.6801 0.0989162 35.5087 1.3328 29.755 3.72959C24.0012 6.12638 18.779 9.63866 14.3894 14.0638C9.99984 18.489 6.52986 23.7394 4.17961 29.5123C1.82936 35.2852 0.64535 41.4663 0.695888 47.6991Z" fill="url(#paint0_radial_1_106672)"/>
<path style="mix-blend-mode:screen" opacity="0.5" d="M24.3045 47.6992C24.2793 52.3739 25.6424 56.9509 28.2211 60.8501C30.7998 64.7492 34.4781 67.795 38.7897 69.6015C43.1013 71.4079 47.8522 71.8937 52.4402 70.9972C57.0282 70.1008 61.2468 67.8624 64.5613 64.5658C67.8758 61.2692 70.1369 57.0628 71.0583 52.4798C71.9796 47.8967 71.5196 43.1433 69.7365 38.822C67.9535 34.5006 64.9276 30.8059 61.0425 28.2061C57.1574 25.6062 52.5879 24.2183 47.9131 24.2183C41.6738 24.2182 35.6881 26.688 31.2643 31.0879C26.8405 35.4878 24.3383 41.46 24.3045 47.6992Z" fill="url(#paint1_radial_1_106672)"/>
<path style="mix-blend-mode:screen" d="M28.2607 47.6994C28.2607 51.5863 29.4133 55.386 31.5728 58.6178C33.7322 61.8497 36.8016 64.3686 40.3926 65.856C43.9836 67.3435 47.9351 67.7327 51.7473 66.9744C55.5595 66.2161 59.0613 64.3443 61.8097 61.5959C64.5582 58.8474 66.4299 55.3457 67.1882 51.5334C67.9465 47.7212 67.5573 43.7698 66.0699 40.1787C64.5824 36.5877 62.0635 33.5184 58.8317 31.3589C55.5998 29.1995 51.8002 28.0469 47.9133 28.0469C42.7011 28.0469 37.7024 30.1174 34.0168 33.803C30.3313 37.4886 28.2607 42.4873 28.2607 47.6994Z" fill="url(#paint2_radial_1_106672)"/>
<path style="mix-blend-mode:screen" opacity="0.15" d="M147.452 479.545C147.325 486.189 149.181 492.72 152.783 498.304C156.384 503.889 161.568 508.273 167.673 510.898C173.778 513.523 180.526 514.27 187.057 513.042C193.588 511.815 199.604 508.669 204.339 504.007C209.074 499.344 212.313 493.377 213.641 486.866C214.969 480.355 214.327 473.596 211.797 467.451C209.266 461.307 204.962 456.056 199.434 452.368C193.906 448.681 187.404 446.724 180.759 446.748C172.023 446.78 163.647 450.23 157.422 456.359C151.197 462.488 147.619 470.811 147.452 479.545Z" fill="url(#paint3_radial_1_106672)"/>
<path style="mix-blend-mode:screen" opacity="0.5" d="M180.76 496.262C189.993 496.262 197.477 488.777 197.477 479.545C197.477 470.312 189.993 462.827 180.76 462.827C171.527 462.827 164.042 470.312 164.042 479.545C164.042 488.777 171.527 496.262 180.76 496.262Z" fill="url(#paint4_radial_1_106672)"/>
<path style="mix-blend-mode:screen" d="M180.76 493.455C188.442 493.455 194.669 487.227 194.669 479.545C194.669 471.862 188.442 465.635 180.76 465.635C173.077 465.635 166.85 471.862 166.85 479.545C166.85 487.227 173.077 493.455 180.76 493.455Z" fill="url(#paint5_radial_1_106672)"/>
<path style="mix-blend-mode:screen" opacity="0.15" d="M423.992 90.0672C423.992 96.68 425.953 103.144 429.626 108.643C433.3 114.141 438.522 118.426 444.632 120.957C450.741 123.488 457.464 124.15 463.949 122.86C470.435 121.569 476.393 118.385 481.069 113.709C485.745 109.033 488.929 103.076 490.219 96.59C491.509 90.1043 490.847 83.3816 488.316 77.2722C485.786 71.1628 481.5 65.941 476.002 62.2671C470.504 58.5933 464.039 56.6323 457.427 56.6323C448.559 56.6323 440.055 60.1549 433.785 66.4252C427.514 72.6954 423.992 81.1997 423.992 90.0672Z" fill="url(#paint6_radial_1_106672)"/>
<path style="mix-blend-mode:screen" opacity="0.5" d="M440.708 90.067C440.708 93.3734 441.689 96.6056 443.526 99.3547C445.363 102.104 447.974 104.247 451.028 105.512C454.083 106.777 457.444 107.108 460.687 106.463C463.93 105.818 466.909 104.226 469.247 101.888C471.585 99.5501 473.177 96.5713 473.822 93.3284C474.467 90.0856 474.136 86.7242 472.871 83.6695C471.606 80.6148 469.463 78.0039 466.714 76.167C463.964 74.33 460.732 73.3496 457.426 73.3496C452.992 73.3496 448.74 75.1109 445.605 78.246C442.47 81.3812 440.708 85.6333 440.708 90.067Z" fill="url(#paint7_radial_1_106672)"/>
<path style="mix-blend-mode:screen" d="M443.517 90.0669C443.415 92.8375 444.144 95.5753 445.609 97.9289C447.075 100.283 449.21 102.145 451.741 103.276C454.272 104.408 457.083 104.757 459.814 104.279C462.545 103.802 465.071 102.519 467.068 100.595C469.065 98.6718 470.441 96.1956 471.021 93.4843C471.6 90.7731 471.356 87.9505 470.32 85.379C469.284 82.8074 467.503 80.6041 465.205 79.0519C462.908 77.4997 460.2 76.6694 457.427 76.6675C453.825 76.6651 450.362 78.0603 447.767 80.5595C445.173 83.0587 443.649 86.467 443.517 90.0669Z" fill="url(#paint8_radial_1_106672)"/>
<path style="mix-blend-mode:screen" opacity="0.15" d="M296.378 167.274C296.378 173.886 298.339 180.351 302.013 185.849C305.687 191.347 310.908 195.633 317.018 198.163C323.127 200.694 329.85 201.356 336.336 200.066C342.821 198.776 348.779 195.592 353.455 190.916C358.131 186.24 361.315 180.282 362.605 173.797C363.895 167.311 363.233 160.588 360.703 154.479C358.172 148.369 353.886 143.148 348.388 139.474C342.89 135.8 336.426 133.839 329.813 133.839C320.945 133.839 312.441 137.361 306.171 143.632C299.901 149.902 296.378 158.406 296.378 167.274Z" fill="url(#paint9_radial_1_106672)"/>
<path style="mix-blend-mode:screen" opacity="0.5" d="M313.095 167.274C313.095 170.58 314.075 173.812 315.912 176.561C317.749 179.31 320.36 181.453 323.415 182.718C326.469 183.984 329.831 184.315 333.074 183.67C336.316 183.025 339.295 181.433 341.633 179.095C343.971 176.757 345.563 173.778 346.208 170.535C346.853 167.292 346.522 163.931 345.257 160.876C343.992 157.821 341.849 155.21 339.1 153.374C336.351 151.537 333.119 150.556 329.812 150.556C325.378 150.556 321.126 152.317 317.991 155.453C314.856 158.588 313.095 162.84 313.095 167.274Z" fill="url(#paint10_radial_1_106672)"/>
<path style="mix-blend-mode:screen" d="M329.685 181.184C337.368 181.184 343.595 174.956 343.595 167.274C343.595 159.591 337.368 153.364 329.685 153.364C322.003 153.364 315.775 159.591 315.775 167.274C315.775 174.956 322.003 181.184 329.685 181.184Z" fill="url(#paint11_radial_1_106672)"/>
<path style="mix-blend-mode:screen" opacity="0.15" d="M122.824 161.914C122.824 166.614 124.219 171.208 126.833 175.114C129.447 179.02 133.161 182.062 137.506 183.855C141.851 185.648 146.63 186.11 151.238 185.184C155.845 184.258 160.075 181.985 163.389 178.652C166.703 175.32 168.954 171.078 169.855 166.466C170.757 161.853 170.268 157.077 168.452 152.742C166.636 148.407 163.574 144.708 159.654 142.116C155.734 139.523 151.132 138.152 146.432 138.178C143.321 138.178 140.241 138.792 137.368 139.987C134.495 141.181 131.887 142.932 129.693 145.137C127.499 147.343 125.763 149.961 124.584 152.84C123.405 155.719 122.807 158.803 122.824 161.914Z" fill="url(#paint12_radial_1_106672)"/>
<path style="mix-blend-mode:screen" opacity="0.5" d="M134.563 161.914C134.563 164.261 135.259 166.555 136.563 168.507C137.867 170.459 139.721 171.98 141.889 172.878C144.058 173.776 146.444 174.011 148.746 173.554C151.049 173.096 153.163 171.965 154.823 170.306C156.483 168.646 157.613 166.531 158.071 164.229C158.529 161.927 158.294 159.54 157.396 157.372C156.497 155.203 154.976 153.35 153.025 152.046C151.073 150.741 148.778 150.045 146.431 150.045C143.283 150.045 140.265 151.296 138.039 153.522C135.813 155.747 134.563 158.766 134.563 161.914Z" fill="url(#paint13_radial_1_106672)"/>
<path style="mix-blend-mode:screen" d="M136.606 161.914C136.606 163.857 137.182 165.757 138.262 167.373C139.342 168.989 140.876 170.248 142.672 170.992C144.467 171.736 146.443 171.93 148.349 171.551C150.255 171.172 152.006 170.236 153.38 168.862C154.755 167.488 155.69 165.737 156.07 163.831C156.449 161.924 156.254 159.949 155.51 158.153C154.767 156.358 153.507 154.823 151.891 153.743C150.275 152.664 148.376 152.087 146.432 152.087C145.137 152.07 143.851 152.313 142.652 152.8C141.452 153.288 140.362 154.011 139.446 154.927C138.53 155.843 137.807 156.933 137.319 158.133C136.831 159.333 136.589 160.618 136.606 161.914Z" fill="url(#paint14_radial_1_106672)"/>
<path style="mix-blend-mode:screen" opacity="0.15" d="M36.3006 322.707C36.2754 327.407 37.646 332.009 40.2387 335.929C42.8315 339.849 46.5297 342.911 50.8646 344.727C55.1995 346.543 59.9761 347.032 64.5888 346.13C69.2016 345.229 73.4429 342.978 76.7752 339.664C80.1076 336.35 82.3809 332.12 83.3072 327.513C84.2334 322.905 83.7709 318.126 81.9782 313.781C80.1854 309.436 77.1432 305.722 73.2371 303.108C69.331 300.494 64.7368 299.099 60.0368 299.099C53.7637 299.099 47.7455 301.582 43.2978 306.006C38.85 310.429 36.3344 316.434 36.3006 322.707Z" fill="url(#paint15_radial_1_106672)"/>
<path style="mix-blend-mode:screen" opacity="0.5" d="M48.1691 322.707C48.1438 325.06 48.8183 327.367 50.1069 329.335C51.3955 331.304 53.2401 332.845 55.4064 333.763C57.5726 334.68 59.9628 334.934 62.2734 334.49C64.5839 334.047 66.7105 332.927 68.3831 331.272C70.0557 329.618 71.1987 327.503 71.6671 325.198C72.1355 322.892 71.908 320.499 71.0136 318.323C70.1192 316.147 68.5982 314.286 66.6439 312.976C64.6895 311.666 62.3899 310.967 60.0372 310.967C56.9116 310.967 53.9121 312.199 51.69 314.398C49.4679 316.596 48.2028 319.582 48.1691 322.707Z" fill="url(#paint16_radial_1_106672)"/>
<path style="mix-blend-mode:screen" d="M50.21 322.707C50.21 324.651 50.7863 326.55 51.866 328.166C52.9457 329.782 54.4804 331.042 56.2759 331.785C58.0714 332.529 60.0471 332.724 61.9532 332.345C63.8594 331.965 65.6102 331.03 66.9845 329.655C68.3587 328.281 69.2945 326.53 69.6737 324.624C70.0528 322.718 69.8583 320.742 69.1145 318.947C68.3708 317.151 67.1113 315.617 65.4954 314.537C63.8795 313.457 61.9797 312.881 60.0362 312.881C57.4302 312.881 54.9308 313.916 53.088 315.759C51.2452 317.602 50.21 320.101 50.21 322.707Z" fill="url(#paint17_radial_1_106672)"/>
<path style="mix-blend-mode:screen" opacity="0.15" d="M463.042 316.837C462.941 321.541 464.24 326.169 466.775 330.133C469.31 334.097 472.965 337.218 477.278 339.1C481.59 340.982 486.364 341.54 490.994 340.704C495.624 339.867 499.901 337.672 503.282 334.4C506.663 331.127 508.994 326.924 509.981 322.323C510.967 317.722 510.565 312.933 508.823 308.561C507.082 304.19 504.081 300.435 500.201 297.773C496.321 295.112 491.738 293.663 487.033 293.611C483.933 293.56 480.853 294.121 477.969 295.261C475.085 296.401 472.454 298.097 470.226 300.254C467.998 302.411 466.217 304.986 464.984 307.831C463.752 310.676 463.091 313.736 463.042 316.837Z" fill="url(#paint18_radial_1_106672)"/>
<path style="mix-blend-mode:screen" opacity="0.5" d="M474.91 316.837C474.91 319.184 475.606 321.479 476.91 323.43C478.214 325.382 480.067 326.903 482.236 327.802C484.405 328.7 486.791 328.935 489.093 328.477C491.395 328.019 493.51 326.889 495.17 325.229C496.83 323.569 497.96 321.454 498.418 319.152C498.876 316.85 498.641 314.464 497.742 312.295C496.844 310.127 495.323 308.273 493.371 306.969C491.42 305.665 489.125 304.969 486.778 304.969C483.63 304.969 480.611 306.219 478.386 308.445C476.16 310.671 474.91 313.689 474.91 316.837Z" fill="url(#paint19_radial_1_106672)"/>
<path style="mix-blend-mode:screen" d="M476.951 316.837C477.076 318.737 477.749 320.56 478.891 322.085C480.032 323.609 481.592 324.769 483.381 325.423C485.169 326.077 487.109 326.198 488.965 325.77C490.82 325.342 492.512 324.384 493.833 323.012C495.154 321.641 496.048 319.915 496.407 318.045C496.765 316.175 496.573 314.24 495.852 312.478C495.132 310.715 493.915 309.199 492.349 308.115C490.783 307.032 488.936 306.426 487.033 306.373C485.665 306.334 484.305 306.581 483.039 307.099C481.773 307.616 480.629 308.392 479.68 309.377C478.731 310.362 477.998 311.535 477.528 312.819C477.058 314.104 476.862 315.472 476.951 316.837Z" fill="url(#paint20_radial_1_106672)"/>
<path style="mix-blend-mode:screen" opacity="0.15" d="M169.53 253.413C169.53 267.421 173.684 281.114 181.467 292.761C189.249 304.409 200.31 313.486 213.252 318.847C226.194 324.208 240.435 325.61 254.173 322.877C267.912 320.145 280.532 313.399 290.437 303.494C300.343 293.589 307.088 280.969 309.821 267.23C312.554 253.491 311.151 239.251 305.79 226.309C300.43 213.367 291.352 202.306 279.705 194.523C268.057 186.741 254.364 182.587 240.356 182.587C221.572 182.587 203.557 190.049 190.275 203.331C176.992 216.614 169.53 234.628 169.53 253.413Z" fill="url(#paint21_radial_1_106672)"/>
<path style="mix-blend-mode:screen" opacity="0.5" d="M205.006 253.413C205.031 260.399 207.126 267.221 211.025 273.017C214.925 278.814 220.454 283.324 226.916 285.98C233.377 288.636 240.481 289.318 247.329 287.94C254.178 286.561 260.465 283.185 265.395 278.236C270.326 273.287 273.68 266.989 275.034 260.135C276.388 253.281 275.68 246.181 273.001 239.729C270.322 233.277 265.791 227.764 259.981 223.885C254.17 220.007 247.341 217.937 240.355 217.937C235.702 217.936 231.095 218.855 226.798 220.639C222.501 222.424 218.598 225.039 215.314 228.335C212.03 231.631 209.429 235.543 207.66 239.847C205.891 244.15 204.989 248.76 205.006 253.413Z" fill="url(#paint22_radial_1_106672)"/>
<path style="mix-blend-mode:screen" d="M210.877 253.413C210.877 259.243 212.606 264.943 215.846 269.79C219.085 274.638 223.689 278.417 229.075 280.648C234.462 282.879 240.389 283.463 246.107 282.325C251.826 281.188 257.078 278.38 261.201 274.258C265.324 270.135 268.131 264.882 269.269 259.164C270.406 253.446 269.822 247.518 267.591 242.132C265.36 236.745 261.582 232.141 256.734 228.902C251.886 225.663 246.187 223.934 240.356 223.934C236.485 223.934 232.652 224.697 229.075 226.178C225.499 227.659 222.249 229.831 219.512 232.568C216.774 235.306 214.603 238.555 213.121 242.132C211.64 245.708 210.877 249.542 210.877 253.413Z" fill="url(#paint23_radial_1_106672)"/>
<path d="M47.72 20.7905L48.0207 41.8665L50.7219 20.9622L48.6181 41.9351L53.6846 21.4749L49.2039 42.0713L56.5696 22.322L49.7702 42.2734L59.3393 23.4925L50.3099 42.5387L61.9574 24.971L50.8158 42.8638L64.3899 26.7383L51.2813 43.2445L66.6052 28.7715L51.7004 43.6757L68.5742 31.0438L52.0677 44.152L70.2714 33.5259L52.3782 44.6669L71.6745 36.1852L52.628 45.2139L72.7654 38.9871L52.8138 45.7859L73.5298 41.8951L52.9333 46.3753L73.9577 44.8712L52.9847 46.9744L74.0436 47.8768L52.9676 47.5755L73.7862 50.8726L52.882 48.1708L73.1891 53.8195L52.7291 48.7524L72.26 56.6791L52.5109 49.3127L71.0109 59.4142L52.2303 49.8446L69.4582 61.989L51.8909 50.341L67.6221 64.3701L51.497 50.7955L65.5266 66.5263L51.054 51.2021L63.1989 68.4297L50.5675 51.5556L60.6694 70.0553L50.0439 51.8513L57.9712 71.3819L49.4899 52.0854L55.1392 72.3924L48.9129 52.2548L52.2106 73.0734L48.3204 52.3573L49.2234 73.4161L47.72 52.3917L46.2166 73.4161L47.1196 52.3573L43.2294 73.0734L46.5271 52.2548L40.3008 72.3924L45.9501 52.0854L37.4689 71.3819L45.3962 51.8513L34.7706 70.0553L44.8725 51.5556L32.2411 68.4297L44.386 51.2021L29.9134 66.5263L43.943 50.7955L27.8179 64.3701L43.5492 50.341L25.9818 61.989L43.2098 49.8446L24.4291 59.4142L42.9291 49.3127L23.1801 56.6791L42.7109 48.7524L22.2509 53.8195L42.5581 48.1708L21.6538 50.8726L42.4725 47.5755L21.3965 47.8768L42.4553 46.9744L21.4823 44.8712L42.5068 46.3753L21.9103 41.8951L42.6262 45.7859L22.6746 38.9871L42.812 45.2139L23.7655 36.1852L43.0618 44.6669L25.1687 33.5259L43.3724 44.152L26.8658 31.0438L43.7396 43.6757L28.8349 28.7715L44.1587 43.2445L31.0501 26.7383L44.6242 42.8638L33.4826 24.971L45.1301 42.5387L36.1008 23.4925L45.6698 42.2734L38.8704 22.322L46.2362 42.0713L41.7554 21.4749L46.8219 41.9351L44.7181 20.9622L47.4193 41.8665L47.72 20.7905Z" fill="url(#paint24_linear_1_106672)"/>
<path d="M239.584 212.654L240.035 244.268L244.087 212.912L240.931 244.371L248.531 213.681L241.81 244.575L252.858 214.952L242.659 244.879L257.013 216.707L243.469 245.277L260.94 218.925L244.228 245.764L264.589 221.576L244.926 246.335L267.912 224.626L245.555 246.982L270.865 228.034L246.105 247.696L273.411 231.757L246.571 248.469L275.516 235.746L246.946 249.289L277.152 239.949L247.225 250.147L278.299 244.311L247.404 251.031L278.94 248.775L247.481 251.93L279.069 253.284L247.455 252.832L278.683 257.777L247.327 253.725L277.788 262.198L247.098 254.597L276.394 266.487L246.77 255.438L274.52 270.59L246.349 256.235L272.191 274.452L245.84 256.98L269.437 278.024L245.249 257.662L266.294 281.258L244.585 258.272L262.802 284.113L243.855 258.802L259.008 286.551L243.07 259.245L254.961 288.541L242.239 259.597L250.713 290.057L241.373 259.851L246.32 291.079L240.485 260.004L241.839 291.593L239.584 260.056L237.329 291.593L238.683 260.004L232.848 291.079L237.795 259.851L228.455 290.057L236.929 259.597L224.207 288.541L236.098 259.245L220.16 286.551L235.313 258.802L216.366 284.113L234.583 258.272L212.874 281.258L233.918 257.662L209.731 278.024L233.328 256.98L206.977 274.452L232.819 256.235L204.648 270.59L232.398 255.438L202.774 266.487L232.07 254.597L201.38 262.198L231.841 253.725L200.485 257.777L231.713 252.832L200.099 253.284L231.687 251.93L200.227 248.775L231.764 251.031L200.869 244.311L231.943 250.147L202.016 239.949L232.222 249.289L203.652 235.746L232.597 248.469L205.757 231.757L233.062 247.696L208.303 228.034L233.613 246.982L211.256 224.626L234.242 246.335L214.579 221.576L234.94 245.764L218.228 218.925L235.699 245.277L222.155 216.707L236.509 244.879L226.31 214.952L237.358 244.575L230.637 213.681L238.237 244.371L235.081 212.912L239.133 244.268L239.584 212.654Z" fill="url(#paint25_linear_1_106672)"/>
<path d="M329.873 154.343L330.023 164.881L331.374 154.429L330.322 164.915L332.855 154.685L330.615 164.983L334.298 155.109L330.898 165.084L335.682 155.694L331.168 165.217L336.991 156.433L331.421 165.379L338.208 157.317L331.653 165.57L339.315 158.333L331.863 165.785L340.3 159.469L332.047 166.023L341.148 160.71L332.202 166.281L341.85 162.04L332.327 166.554L342.395 163.441L332.42 166.84L342.778 164.895L332.479 167.135L342.992 166.383L332.505 167.435L343.034 167.886L332.496 167.735L342.906 169.384L332.454 168.033L342.607 170.857L332.377 168.324L342.143 172.287L332.268 168.604L341.518 173.655L332.128 168.87L340.742 174.942L331.958 169.118L339.824 176.133L331.761 169.345L338.776 177.211L331.54 169.549L337.612 178.162L331.296 169.725L336.347 178.975L331.035 169.873L334.998 179.638L330.758 169.99L333.582 180.144L330.469 170.075L332.118 180.484L330.173 170.126L330.624 180.656L329.873 170.143L329.121 180.656L329.573 170.126L327.627 180.484L329.276 170.075L326.163 180.144L328.988 169.99L324.747 179.638L328.711 169.873L323.398 178.975L328.449 169.725L322.133 178.162L328.206 169.549L320.969 177.211L327.984 169.345L319.922 176.133L327.787 169.118L319.004 174.942L327.618 168.87L318.227 173.655L327.477 168.604L317.603 172.287L327.368 168.324L317.138 170.857L327.292 168.033L316.84 169.384L327.249 167.735L316.711 167.886L327.24 167.435L316.754 166.383L327.266 167.135L316.968 164.895L327.326 166.84L317.35 163.441L327.419 166.554L317.895 162.04L327.544 166.281L318.597 160.71L327.699 166.023L319.446 159.469L327.882 165.785L320.43 158.333L328.092 165.57L321.538 157.317L328.325 165.379L322.754 156.433L328.578 165.217L324.063 155.694L328.848 165.084L325.448 155.109L329.131 164.983L326.89 154.685L329.424 164.915L328.372 154.429L329.722 164.881L329.873 154.343Z" fill="url(#paint26_linear_1_106672)"/>
<path d="M147.414 148.7L147.564 159.238L148.915 148.786L147.863 159.272L150.396 149.042L148.156 159.34L151.839 149.465L148.439 159.441L153.223 150.051L148.709 159.574L154.532 150.79L148.962 159.736L155.749 151.674L149.194 159.927L156.856 152.69L149.404 160.142L157.841 153.826L149.588 160.38L158.689 155.067L149.743 160.638L159.391 156.397L149.868 160.911L159.936 157.798L149.961 161.197L160.319 159.252L150.02 161.492L160.533 160.74L150.046 161.792L160.575 162.243L150.037 162.092L160.447 163.741L149.995 162.39L160.148 165.214L149.918 162.681L159.684 166.644L149.809 162.961L159.059 168.012L149.669 163.227L158.283 169.299L149.499 163.475L157.365 170.489L149.302 163.702L156.317 171.568L149.081 163.905L155.153 172.519L148.837 164.082L153.888 173.332L148.576 164.23L152.539 173.995L148.299 164.347L151.123 174.501L148.01 164.432L149.659 174.841L147.714 164.483L148.165 175.013L147.414 164.5L146.662 175.013L147.114 164.483L145.168 174.841L146.817 164.432L143.704 174.501L146.529 164.347L142.288 173.995L146.252 164.23L140.939 173.332L145.99 164.082L139.674 172.519L145.747 163.905L138.51 171.568L145.525 163.702L137.463 170.489L145.328 163.475L136.545 169.299L145.159 163.227L135.768 168.012L145.018 162.961L135.144 166.644L144.909 162.681L134.679 165.214L144.833 162.39L134.381 163.741L144.79 162.092L134.252 162.243L144.781 161.792L134.295 160.74L144.807 161.492L134.509 159.252L144.867 161.197L134.891 157.798L144.96 160.911L135.436 156.397L145.085 160.638L136.138 155.067L145.24 160.38L136.987 153.826L145.424 160.142L137.971 152.69L145.633 159.927L139.079 151.674L145.866 159.736L140.295 150.79L146.119 159.574L141.604 150.051L146.389 159.441L142.989 149.465L146.672 159.34L144.431 149.042L146.965 159.272L145.913 148.786L147.263 159.238L147.414 148.7Z" fill="url(#paint27_linear_1_106672)"/>
<path d="M60.8869 310.467L61.0372 321.005L62.3878 310.553L61.3359 321.04L63.8692 310.809L61.6288 321.108L65.3117 311.233L61.912 321.209L66.6965 311.818L62.1818 321.341L68.0056 312.558L62.4348 321.504L69.2218 313.441L62.6675 321.694L70.3294 314.458L62.8771 321.91L71.3139 315.594L63.0607 322.148L72.1625 316.835L63.216 322.405L72.8641 318.165L63.3409 322.679L73.4096 319.566L63.4338 322.965L73.7917 321.02L63.4935 323.26L74.0057 322.508L63.5192 323.559L74.0486 324.01L63.5106 323.86L73.92 325.508L63.4678 324.157L73.6214 326.982L63.3914 324.448L73.1568 328.412L63.2823 324.728L72.5323 329.779L63.142 324.994L71.756 331.067L62.9723 325.243L70.8379 332.257L62.7754 325.47L69.7902 333.335L62.5539 325.673L68.6263 334.287L62.3106 325.85L67.3616 335.1L62.0488 325.998L66.0124 335.763L61.7718 326.115L64.5965 336.268L61.4833 326.199L63.1322 336.609L61.1871 326.251L61.6386 336.78L60.8869 326.268L60.1352 336.78L60.5867 326.251L58.6416 336.609L60.2904 326.199L57.1773 336.268L60.0019 326.115L55.7613 335.763L59.7249 325.998L54.4121 335.1L59.4631 325.85L53.1474 334.287L59.2199 325.673L51.9836 333.335L58.9984 325.47L50.9358 332.257L58.8014 325.243L50.0178 331.067L58.6317 324.994L49.2414 329.779L58.4914 324.728L48.6169 328.412L58.3823 324.448L48.1523 326.982L58.3059 324.157L47.8537 325.508L58.2631 323.86L47.7251 324.01L58.2545 323.559L47.768 322.508L58.2802 323.26L47.982 321.02L58.34 322.965L48.3642 319.566L58.4329 322.679L48.9096 318.165L58.5578 322.405L49.6112 316.835L58.713 322.148L50.4598 315.594L58.8967 321.91L51.4443 314.458L59.1062 321.694L52.5519 313.441L59.339 321.504L53.7682 312.558L59.5919 321.341L55.0772 311.818L59.8617 321.209L56.4621 311.233L60.1449 321.108L57.9046 310.809L60.4378 321.04L59.3859 310.553L60.7365 321.005L60.8869 310.467Z" fill="url(#paint28_linear_1_106672)"/>
<path d="M182.213 459.068L182.438 474.875L184.464 459.197L182.886 474.926L186.686 459.581L183.326 475.028L188.85 460.216L183.75 475.18L190.927 461.094L184.155 475.379L192.891 462.203L184.534 475.623L194.715 463.529L184.884 475.908L196.376 465.054L185.198 476.232L197.853 466.758L185.473 476.589L199.126 468.619L185.706 476.975L200.178 470.614L185.894 477.385L200.997 472.715L186.033 477.814L201.57 474.896L186.123 478.256L201.891 477.128L186.161 478.706L201.955 479.383L186.148 479.157L201.762 481.629L186.084 479.603L201.314 483.84L185.969 480.039L200.618 485.984L185.806 480.46L199.681 488.036L185.595 480.858L198.516 489.967L185.341 481.231L197.139 491.753L185.045 481.572L195.568 493.37L184.713 481.877L193.822 494.797L184.348 482.142L191.925 496.016L183.956 482.363L189.901 497.011L183.54 482.539L187.777 497.769L183.107 482.666L185.581 498.28L182.663 482.743L183.34 498.537L182.213 482.769L181.085 498.537L181.762 482.743L178.845 498.28L181.318 482.666L176.648 497.769L180.885 482.539L174.524 497.011L180.47 482.363L172.501 496.016L180.077 482.142L170.603 494.797L179.712 481.877L168.858 493.37L179.38 481.572L167.286 491.753L179.084 481.231L165.909 489.967L178.83 480.858L164.744 488.036L178.619 480.46L163.808 485.984L178.456 480.039L163.111 483.84L178.341 479.603L162.663 481.629L178.277 479.157L162.47 479.383L178.264 478.706L162.534 477.128L178.303 478.256L162.855 474.896L178.392 477.814L163.429 472.715L178.532 477.385L164.247 470.614L178.719 476.975L165.299 468.619L178.952 476.589L166.572 466.758L179.227 476.232L168.049 465.054L179.542 475.908L169.71 463.529L179.891 475.623L171.535 462.203L180.27 475.379L173.498 461.094L180.675 475.18L175.575 460.216L181.1 475.028L177.739 459.581L181.539 474.926L179.961 459.197L181.987 474.875L182.213 459.068Z" fill="url(#paint29_linear_1_106672)"/>
<defs>
<radialGradient id="paint0_radial_1_106672" cx="0" cy="0" r="1" gradientUnits="userSpaceOnUse" gradientTransform="translate(47.913 47.6991) scale(47.2171 47.2171)">
<stop stop-color="#220000"/>
<stop offset="0.73" stop-color="#984023"/>
<stop offset="1" stop-color="#220000"/>
</radialGradient>
<radialGradient id="paint1_radial_1_106672" cx="0" cy="0" r="1" gradientUnits="userSpaceOnUse" gradientTransform="translate(47.9131 47.6992) scale(23.6086 23.6086)">
<stop offset="0.15" stop-color="white"/>
<stop offset="0.21" stop-color="#E5D3D3"/>
<stop offset="0.29" stop-color="#C49C9E"/>
<stop offset="0.36" stop-color="#AD7477"/>
<stop offset="0.42" stop-color="#9E5C5F"/>
<stop offset="0.45" stop-color="#995356"/>
<stop offset="0.57" stop-color="#6B3335"/>
<stop offset="0.69" stop-color="#431718"/>
<stop offset="0.79" stop-color="#2B0606"/>
<stop offset="0.85" stop-color="#220000"/>
<stop offset="0.86" stop-color="#330704"/>
<stop offset="0.87" stop-color="#471009"/>
<stop offset="0.88" stop-color="#641D0F"/>
<stop offset="0.89" stop-color="#8A2E18"/>
<stop offset="0.9" stop-color="#C84927"/>
<stop offset="0.91" stop-color="#9C361C"/>
<stop offset="0.93" stop-color="#772514"/>
<stop offset="0.94" stop-color="#58180C"/>
<stop offset="0.95" stop-color="#400D07"/>
<stop offset="0.97" stop-color="#2F0603"/>
<stop offset="0.98" stop-color="#250101"/>
<stop offset="1" stop-color="#220000"/>
</radialGradient>
<radialGradient id="paint2_radial_1_106672" cx="0" cy="0" r="1" gradientUnits="userSpaceOnUse" gradientTransform="translate(47.9133 47.6994) scale(19.6526)">
<stop offset="0.15" stop-color="white"/>
<stop offset="0.28" stop-color="#C2C2C2"/>
<stop offset="0.43" stop-color="#888888"/>
<stop offset="0.56" stop-color="#575757"/>
<stop offset="0.69" stop-color="#313131"/>
<stop offset="0.81" stop-color="#161616"/>
<stop offset="0.92" stop-color="#060606"/>
<stop offset="1"/>
</radialGradient>
<radialGradient id="paint3_radial_1_106672" cx="0" cy="0" r="1" gradientUnits="userSpaceOnUse" gradientTransform="translate(180.887 479.545) scale(33.4348 33.4348)">
<stop stop-color="#220000"/>
<stop offset="0.73" stop-color="#984023"/>
<stop offset="1" stop-color="#220000"/>
</radialGradient>
<radialGradient id="paint4_radial_1_106672" cx="0" cy="0" r="1" gradientUnits="userSpaceOnUse" gradientTransform="translate(180.76 479.545) scale(16.7174)">
<stop offset="0.15" stop-color="white"/>
<stop offset="0.21" stop-color="#E5D3D3"/>
<stop offset="0.29" stop-color="#C49C9E"/>
<stop offset="0.36" stop-color="#AD7477"/>
<stop offset="0.42" stop-color="#9E5C5F"/>
<stop offset="0.45" stop-color="#995356"/>
<stop offset="0.57" stop-color="#6B3335"/>
<stop offset="0.69" stop-color="#431718"/>
<stop offset="0.79" stop-color="#2B0606"/>
<stop offset="0.85" stop-color="#220000"/>
<stop offset="0.86" stop-color="#330704"/>
<stop offset="0.87" stop-color="#471009"/>
<stop offset="0.88" stop-color="#641D0F"/>
<stop offset="0.89" stop-color="#8A2E18"/>
<stop offset="0.9" stop-color="#C84927"/>
<stop offset="0.91" stop-color="#9C361C"/>
<stop offset="0.93" stop-color="#772514"/>
<stop offset="0.94" stop-color="#58180C"/>
<stop offset="0.95" stop-color="#400D07"/>
<stop offset="0.97" stop-color="#2F0603"/>
<stop offset="0.98" stop-color="#250101"/>
<stop offset="1" stop-color="#220000"/>
</radialGradient>
<radialGradient id="paint5_radial_1_106672" cx="0" cy="0" r="1" gradientUnits="userSpaceOnUse" gradientTransform="translate(180.76 479.545) scale(13.9099)">
<stop offset="0.15" stop-color="white"/>
<stop offset="0.28" stop-color="#C2C2C2"/>
<stop offset="0.43" stop-color="#888888"/>
<stop offset="0.56" stop-color="#575757"/>
<stop offset="0.69" stop-color="#313131"/>
<stop offset="0.81" stop-color="#161616"/>
<stop offset="0.92" stop-color="#060606"/>
<stop offset="1"/>
</radialGradient>
<radialGradient id="paint6_radial_1_106672" cx="0" cy="0" r="1" gradientUnits="userSpaceOnUse" gradientTransform="translate(457.427 90.0672) scale(33.4348 33.4348)">
<stop stop-color="#220000"/>
<stop offset="0.73" stop-color="#984023"/>
<stop offset="1" stop-color="#220000"/>
</radialGradient>
<radialGradient id="paint7_radial_1_106672" cx="0" cy="0" r="1" gradientUnits="userSpaceOnUse" gradientTransform="translate(457.426 90.067) scale(16.7174 16.7174)">
<stop offset="0.15" stop-color="white"/>
<stop offset="0.21" stop-color="#E5D3D3"/>
<stop offset="0.29" stop-color="#C49C9E"/>
<stop offset="0.36" stop-color="#AD7477"/>
<stop offset="0.42" stop-color="#9E5C5F"/>
<stop offset="0.45" stop-color="#995356"/>
<stop offset="0.57" stop-color="#6B3335"/>
<stop offset="0.69" stop-color="#431718"/>
<stop offset="0.79" stop-color="#2B0606"/>
<stop offset="0.85" stop-color="#220000"/>
<stop offset="0.86" stop-color="#330704"/>
<stop offset="0.87" stop-color="#471009"/>
<stop offset="0.88" stop-color="#641D0F"/>
<stop offset="0.89" stop-color="#8A2E18"/>
<stop offset="0.9" stop-color="#C84927"/>
<stop offset="0.91" stop-color="#9C361C"/>
<stop offset="0.93" stop-color="#772514"/>
<stop offset="0.94" stop-color="#58180C"/>
<stop offset="0.95" stop-color="#400D07"/>
<stop offset="0.97" stop-color="#2F0603"/>
<stop offset="0.98" stop-color="#250101"/>
<stop offset="1" stop-color="#220000"/>
</radialGradient>
<radialGradient id="paint8_radial_1_106672" cx="0" cy="0" r="1" gradientUnits="userSpaceOnUse" gradientTransform="translate(457.427 90.0669) scale(13.9099 13.9099)">
<stop offset="0.15" stop-color="white"/>
<stop offset="0.28" stop-color="#C2C2C2"/>
<stop offset="0.43" stop-color="#888888"/>
<stop offset="0.56" stop-color="#575757"/>
<stop offset="0.69" stop-color="#313131"/>
<stop offset="0.81" stop-color="#161616"/>
<stop offset="0.92" stop-color="#060606"/>
<stop offset="1"/>
</radialGradient>
<radialGradient id="paint9_radial_1_106672" cx="0" cy="0" r="1" gradientUnits="userSpaceOnUse" gradientTransform="translate(329.813 167.274) scale(33.4348 33.4349)">
<stop stop-color="#220000"/>
<stop offset="0.73" stop-color="#984023"/>
<stop offset="1" stop-color="#220000"/>
</radialGradient>
<radialGradient id="paint10_radial_1_106672" cx="0" cy="0" r="1" gradientUnits="userSpaceOnUse" gradientTransform="translate(329.812 167.274) scale(16.7174)">
<stop offset="0.15" stop-color="white"/>
<stop offset="0.21" stop-color="#E5D3D3"/>
<stop offset="0.29" stop-color="#C49C9E"/>
<stop offset="0.36" stop-color="#AD7477"/>
<stop offset="0.42" stop-color="#9E5C5F"/>
<stop offset="0.45" stop-color="#995356"/>
<stop offset="0.57" stop-color="#6B3335"/>
<stop offset="0.69" stop-color="#431718"/>
<stop offset="0.79" stop-color="#2B0606"/>
<stop offset="0.85" stop-color="#220000"/>
<stop offset="0.86" stop-color="#330704"/>
<stop offset="0.87" stop-color="#471009"/>
<stop offset="0.88" stop-color="#641D0F"/>
<stop offset="0.89" stop-color="#8A2E18"/>
<stop offset="0.9" stop-color="#C84927"/>
<stop offset="0.91" stop-color="#9C361C"/>
<stop offset="0.93" stop-color="#772514"/>
<stop offset="0.94" stop-color="#58180C"/>
<stop offset="0.95" stop-color="#400D07"/>
<stop offset="0.97" stop-color="#2F0603"/>
<stop offset="0.98" stop-color="#250101"/>
<stop offset="1" stop-color="#220000"/>
</radialGradient>
<radialGradient id="paint11_radial_1_106672" cx="0" cy="0" r="1" gradientUnits="userSpaceOnUse" gradientTransform="translate(329.685 167.274) scale(13.9099)">
<stop offset="0.15" stop-color="white"/>
<stop offset="0.28" stop-color="#C2C2C2"/>
<stop offset="0.43" stop-color="#888888"/>
<stop offset="0.56" stop-color="#575757"/>
<stop offset="0.69" stop-color="#313131"/>
<stop offset="0.81" stop-color="#161616"/>
<stop offset="0.92" stop-color="#060606"/>
<stop offset="1"/>
</radialGradient>
<radialGradient id="paint12_radial_1_106672" cx="0" cy="0" r="1" gradientUnits="userSpaceOnUse" gradientTransform="translate(146.432 161.914) scale(23.7362 23.7362)">
<stop stop-color="#220000"/>
<stop offset="0.73" stop-color="#984023"/>
<stop offset="1" stop-color="#220000"/>
</radialGradient>
<radialGradient id="paint13_radial_1_106672" cx="0" cy="0" r="1" gradientUnits="userSpaceOnUse" gradientTransform="translate(146.431 161.913) scale(11.8681)">
<stop offset="0.15" stop-color="white"/>
<stop offset="0.21" stop-color="#E5D3D3"/>
<stop offset="0.29" stop-color="#C49C9E"/>
<stop offset="0.36" stop-color="#AD7477"/>
<stop offset="0.42" stop-color="#9E5C5F"/>
<stop offset="0.45" stop-color="#995356"/>
<stop offset="0.57" stop-color="#6B3335"/>
<stop offset="0.69" stop-color="#431718"/>
<stop offset="0.79" stop-color="#2B0606"/>
<stop offset="0.85" stop-color="#220000"/>
<stop offset="0.86" stop-color="#330704"/>
<stop offset="0.87" stop-color="#471009"/>
<stop offset="0.88" stop-color="#641D0F"/>
<stop offset="0.89" stop-color="#8A2E18"/>
<stop offset="0.9" stop-color="#C84927"/>
<stop offset="0.91" stop-color="#9C361C"/>
<stop offset="0.93" stop-color="#772514"/>
<stop offset="0.94" stop-color="#58180C"/>
<stop offset="0.95" stop-color="#400D07"/>
<stop offset="0.97" stop-color="#2F0603"/>
<stop offset="0.98" stop-color="#250101"/>
<stop offset="1" stop-color="#220000"/>
</radialGradient>
<radialGradient id="paint14_radial_1_106672" cx="0" cy="0" r="1" gradientUnits="userSpaceOnUse" gradientTransform="translate(146.432 161.914) scale(9.82627)">
<stop offset="0.15" stop-color="white"/>
<stop offset="0.28" stop-color="#C2C2C2"/>
<stop offset="0.43" stop-color="#888888"/>
<stop offset="0.56" stop-color="#575757"/>
<stop offset="0.69" stop-color="#313131"/>
<stop offset="0.81" stop-color="#161616"/>
<stop offset="0.92" stop-color="#060606"/>
<stop offset="1"/>
</radialGradient>
<radialGradient id="paint15_radial_1_106672" cx="0" cy="0" r="1" gradientUnits="userSpaceOnUse" gradientTransform="translate(60.0368 322.707) scale(23.7362 23.7362)">
<stop stop-color="#220000"/>
<stop offset="0.73" stop-color="#984023"/>
<stop offset="1" stop-color="#220000"/>
</radialGradient>
<radialGradient id="paint16_radial_1_106672" cx="0" cy="0" r="1" gradientUnits="userSpaceOnUse" gradientTransform="translate(60.0372 322.707) scale(11.8681 11.8681)">
<stop offset="0.15" stop-color="white"/>
<stop offset="0.21" stop-color="#E5D3D3"/>
<stop offset="0.29" stop-color="#C49C9E"/>
<stop offset="0.36" stop-color="#AD7477"/>
<stop offset="0.42" stop-color="#9E5C5F"/>
<stop offset="0.45" stop-color="#995356"/>
<stop offset="0.57" stop-color="#6B3335"/>
<stop offset="0.69" stop-color="#431718"/>
<stop offset="0.79" stop-color="#2B0606"/>
<stop offset="0.85" stop-color="#220000"/>
<stop offset="0.86" stop-color="#330704"/>
<stop offset="0.87" stop-color="#471009"/>
<stop offset="0.88" stop-color="#641D0F"/>
<stop offset="0.89" stop-color="#8A2E18"/>
<stop offset="0.9" stop-color="#C84927"/>
<stop offset="0.91" stop-color="#9C361C"/>
<stop offset="0.93" stop-color="#772514"/>
<stop offset="0.94" stop-color="#58180C"/>
<stop offset="0.95" stop-color="#400D07"/>
<stop offset="0.97" stop-color="#2F0603"/>
<stop offset="0.98" stop-color="#250101"/>
<stop offset="1" stop-color="#220000"/>
</radialGradient>
<radialGradient id="paint17_radial_1_106672" cx="0" cy="0" r="1" gradientUnits="userSpaceOnUse" gradientTransform="translate(60.0362 322.707) scale(9.82627 9.82629)">
<stop offset="0.15" stop-color="white"/>
<stop offset="0.28" stop-color="#C2C2C2"/>
<stop offset="0.43" stop-color="#888888"/>
<stop offset="0.56" stop-color="#575757"/>
<stop offset="0.69" stop-color="#313131"/>
<stop offset="0.81" stop-color="#161616"/>
<stop offset="0.92" stop-color="#060606"/>
<stop offset="1"/>
</radialGradient>
<radialGradient id="paint18_radial_1_106672" cx="0" cy="0" r="1" gradientUnits="userSpaceOnUse" gradientTransform="translate(486.778 316.837) scale(23.7362 23.7362)">
<stop stop-color="#220000"/>
<stop offset="0.73" stop-color="#984023"/>
<stop offset="1" stop-color="#220000"/>
</radialGradient>
<radialGradient id="paint19_radial_1_106672" cx="0" cy="0" r="1" gradientUnits="userSpaceOnUse" gradientTransform="translate(486.778 316.837) scale(11.8681 11.8681)">
<stop offset="0.15" stop-color="white"/>
<stop offset="0.21" stop-color="#E5D3D3"/>
<stop offset="0.29" stop-color="#C49C9E"/>
<stop offset="0.36" stop-color="#AD7477"/>
<stop offset="0.42" stop-color="#9E5C5F"/>
<stop offset="0.45" stop-color="#995356"/>
<stop offset="0.57" stop-color="#6B3335"/>
<stop offset="0.69" stop-color="#431718"/>
<stop offset="0.79" stop-color="#2B0606"/>
<stop offset="0.85" stop-color="#220000"/>
<stop offset="0.86" stop-color="#330704"/>
<stop offset="0.87" stop-color="#471009"/>
<stop offset="0.88" stop-color="#641D0F"/>
<stop offset="0.89" stop-color="#8A2E18"/>
<stop offset="0.9" stop-color="#C84927"/>
<stop offset="0.91" stop-color="#9C361C"/>
<stop offset="0.93" stop-color="#772514"/>
<stop offset="0.94" stop-color="#58180C"/>
<stop offset="0.95" stop-color="#400D07"/>
<stop offset="0.97" stop-color="#2F0603"/>
<stop offset="0.98" stop-color="#250101"/>
<stop offset="1" stop-color="#220000"/>
</radialGradient>
<radialGradient id="paint20_radial_1_106672" cx="0" cy="0" r="1" gradientUnits="userSpaceOnUse" gradientTransform="translate(486.777 316.837) scale(9.82626 9.82627)">
<stop offset="0.15" stop-color="white"/>
<stop offset="0.28" stop-color="#C2C2C2"/>
<stop offset="0.43" stop-color="#888888"/>
<stop offset="0.56" stop-color="#575757"/>
<stop offset="0.69" stop-color="#313131"/>
<stop offset="0.81" stop-color="#161616"/>
<stop offset="0.92" stop-color="#060606"/>
<stop offset="1"/>
</radialGradient>
<radialGradient id="paint21_radial_1_106672" cx="0" cy="0" r="1" gradientUnits="userSpaceOnUse" gradientTransform="translate(240.356 253.413) scale(70.6981)">
<stop stop-color="#220000"/>
<stop offset="0.73" stop-color="#984023"/>
<stop offset="1" stop-color="#220000"/>
</radialGradient>
<radialGradient id="paint22_radial_1_106672" cx="0" cy="0" r="1" gradientUnits="userSpaceOnUse" gradientTransform="translate(240.355 253.413) scale(35.3491)">
<stop offset="0.15" stop-color="white"/>
<stop offset="0.21" stop-color="#E5D3D3"/>
<stop offset="0.29" stop-color="#C49C9E"/>
<stop offset="0.36" stop-color="#AD7477"/>
<stop offset="0.42" stop-color="#9E5C5F"/>
<stop offset="0.45" stop-color="#995356"/>
<stop offset="0.57" stop-color="#6B3335"/>
<stop offset="0.69" stop-color="#431718"/>
<stop offset="0.79" stop-color="#2B0606"/>
<stop offset="0.85" stop-color="#220000"/>
<stop offset="0.86" stop-color="#330704"/>
<stop offset="0.87" stop-color="#471009"/>
<stop offset="0.88" stop-color="#641D0F"/>
<stop offset="0.89" stop-color="#8A2E18"/>
<stop offset="0.9" stop-color="#C84927"/>
<stop offset="0.91" stop-color="#9C361C"/>
<stop offset="0.93" stop-color="#772514"/>
<stop offset="0.94" stop-color="#58180C"/>
<stop offset="0.95" stop-color="#400D07"/>
<stop offset="0.97" stop-color="#2F0603"/>
<stop offset="0.98" stop-color="#250101"/>
<stop offset="1" stop-color="#220000"/>
</radialGradient>
<radialGradient id="paint23_radial_1_106672" cx="0" cy="0" r="1" gradientUnits="userSpaceOnUse" gradientTransform="translate(240.356 253.413) scale(29.4788)">
<stop offset="0.15" stop-color="white"/>
<stop offset="0.28" stop-color="#C2C2C2"/>
<stop offset="0.43" stop-color="#888888"/>
<stop offset="0.56" stop-color="#575757"/>
<stop offset="0.69" stop-color="#313131"/>
<stop offset="0.81" stop-color="#161616"/>
<stop offset="0.92" stop-color="#060606"/>
<stop offset="1"/>
</radialGradient>
<linearGradient id="paint24_linear_1_106672" x1="47.72" y1="20.7905" x2="47.72" y2="73.4591" gradientUnits="userSpaceOnUse">
<stop stop-color="#58A5FF"/>
<stop offset="0.48761" stop-color="white"/>
<stop offset="1" stop-color="white"/>
</linearGradient>
<linearGradient id="paint25_linear_1_106672" x1="239.584" y1="212.654" x2="239.584" y2="291.657" gradientUnits="userSpaceOnUse">
<stop stop-color="#58A5FF"/>
<stop offset="0.48761" stop-color="white"/>
<stop offset="1" stop-color="white"/>
</linearGradient>
<linearGradient id="paint26_linear_1_106672" x1="329.873" y1="154.343" x2="329.873" y2="180.677" gradientUnits="userSpaceOnUse">
<stop stop-color="#58A5FF"/>
<stop offset="0.48761" stop-color="white"/>
<stop offset="1" stop-color="white"/>
</linearGradient>
<linearGradient id="paint27_linear_1_106672" x1="147.414" y1="148.7" x2="147.414" y2="175.034" gradientUnits="userSpaceOnUse">
<stop stop-color="#58A5FF"/>
<stop offset="0.48761" stop-color="white"/>
<stop offset="1" stop-color="white"/>
</linearGradient>
<linearGradient id="paint28_linear_1_106672" x1="60.8869" y1="310.467" x2="60.8869" y2="336.802" gradientUnits="userSpaceOnUse">
<stop stop-color="#58A5FF"/>
<stop offset="0.48761" stop-color="white"/>
<stop offset="1" stop-color="white"/>
</linearGradient>
<linearGradient id="paint29_linear_1_106672" x1="182.213" y1="459.068" x2="182.213" y2="498.569" gradientUnits="userSpaceOnUse">
<stop stop-color="#58A5FF"/>
<stop offset="0.48761" stop-color="white"/>
<stop offset="1" stop-color="white"/>
</linearGradient>
</defs>
</svg>
